/* XPM */
static char *t-xlock[] = {
/* width height ncolors chars_per_pixel */
"16 16 4 1",
/* colors */
"  c None",
". c steel blue",
"X c red",
"o c black",
/* pixels */
"XXXX      X     ",
" XXX     X      ",
" XXXX    X   .  ",
"  XXX   X   ... ",
"  XXXX  X   . . ",
"   XXX X    . . ",
"   XXX X    . . ",
"    X X         ",
"    X X    .....",
"   X XXX   .o.o.",
"   X XXX   .ooo.",
"  X   XXX  .o.o.",
"  X   XXX  .ooo.",
" X     XXX .o.o.",
" X     XXX .ooo.",
"X       XXX....."
};
