#define image_width 116
#define image_height 156
static unsigned char image_bits[] = {
 0x00,0x00,0x00,0x00,0x00,0x00,0x00,0x00,0x00,0x00,0x00,0x00,0x00,0x00,0x00,
 0x00,0x00,0x00,0x00,0x00,0x00,0x00,0x00,0x00,0x00,0x00,0x00,0x00,0x00,0x00,
 0x00,0x00,0x00,0x00,0x00,0x00,0x00,0x00,0x00,0x00,0x00,0x00,0x00,0x00,0x00,
 0x00,0x00,0x00,0x00,0x00,0x00,0x00,0x00,0x00,0x00,0x00,0x00,0x00,0x00,0x00,
 0x00,0x00,0x00,0x00,0x00,0x00,0x00,0x00,0x00,0x00,0x00,0x00,0x00,0x00,0x00,
 0x00,0x00,0x00,0x00,0x00,0x00,0x00,0x00,0x00,0x00,0x00,0x00,0x00,0x00,0x00,
 0x00,0x00,0x00,0x00,0x00,0x00,0x00,0x00,0x00,0x00,0x00,0x00,0x00,0x00,0x00,
 0x00,0x00,0x00,0x00,0x00,0x00,0x00,0x00,0x00,0x00,0x00,0x00,0x00,0x00,0x00,
 0x00,0x00,0x00,0x00,0x00,0x00,0x00,0x00,0x00,0x00,0x00,0x00,0x00,0x00,0x00,
 0x00,0x00,0x00,0x00,0x00,0x00,0x00,0x00,0x00,0x00,0x00,0x00,0x00,0x00,0x00,
 0x00,0x00,0x00,0x00,0x00,0x00,0x00,0x00,0x00,0x00,0x00,0x00,0x00,0x00,0x00,
 0x00,0x00,0x00,0x00,0x00,0x80,0x00,0x00,0x00,0x00,0x00,0x00,0x00,0x00,0x00,
 0x00,0x00,0x00,0x00,0x00,0x80,0x01,0x00,0x00,0x00,0x00,0x00,0x00,0x00,0x00,
 0x00,0x00,0x00,0x00,0x00,0x80,0x02,0x00,0x00,0x00,0x00,0x00,0x00,0x00,0x00,
 0x00,0x00,0x00,0x00,0x00,0xe0,0x12,0x00,0x00,0x00,0x00,0x00,0x00,0x00,0x00,
 0x00,0x00,0x00,0x00,0x00,0x80,0x14,0x00,0x00,0x00,0x00,0x00,0x00,0x00,0x00,
 0x00,0x00,0x00,0x00,0x00,0xe0,0x2a,0x00,0x00,0x80,0x00,0x00,0x00,0x00,0x00,
 0x00,0x00,0x00,0x00,0x00,0x60,0x4b,0x00,0x08,0x40,0x01,0x00,0x00,0x00,0x00,
 0x00,0x00,0x00,0x00,0x00,0x20,0x49,0x00,0x0a,0x18,0x01,0x00,0x00,0x00,0x00,
 0x00,0x00,0x00,0x00,0x00,0xb0,0x92,0x40,0x84,0x86,0x00,0x00,0x00,0x00,0x00,
 0x00,0x00,0x00,0x00,0x00,0xa0,0x35,0x10,0x45,0x90,0x00,0x00,0x00,0x00,0x00,
 0x00,0x00,0x00,0x00,0x00,0x30,0xab,0x8a,0x22,0xa4,0x00,0x00,0x00,0x00,0x00,
 0x00,0x00,0x00,0x00,0x00,0xd0,0x45,0x61,0x12,0x93,0x00,0x00,0x00,0x00,0x00,
 0x00,0x00,0x00,0x00,0x00,0x30,0x55,0x49,0xc9,0xac,0x00,0x00,0x00,0x00,0x00,
 0x00,0x00,0x00,0x00,0x40,0xcb,0x88,0x28,0x45,0x49,0x00,0x00,0x00,0x00,0x00,
 0x00,0x00,0x00,0x00,0x10,0x70,0x45,0x16,0x00,0x4a,0x00,0x00,0x00,0x00,0x00,
 0x00,0x00,0x00,0x00,0xa0,0x86,0x08,0x11,0xa9,0x4a,0x00,0x00,0x00,0x00,0x00,
 0x00,0x00,0x00,0xa8,0x20,0x35,0x2a,0x55,0x52,0x54,0x00,0x00,0x00,0x00,0x00,
 0x00,0x00,0x00,0x92,0x8a,0x2c,0x4d,0xca,0x2a,0x25,0x00,0x00,0x00,0x00,0x00,
 0x00,0x00,0x00,0x50,0x09,0x51,0x95,0x29,0x88,0x48,0x00,0x00,0x00,0x00,0x00,
 0x00,0x00,0x00,0x22,0x08,0x28,0x25,0xca,0x4b,0x62,0x00,0xa8,0x00,0x00,0x00,
 0x00,0x00,0x00,0xca,0x94,0xa2,0xd2,0xaa,0x32,0x45,0x00,0xda,0x01,0x00,0x00,
 0x00,0x00,0x00,0x8a,0x84,0x16,0x4a,0x65,0xa5,0xaa,0x00,0xa1,0x0a,0x00,0x00,
 0x00,0x00,0x80,0xb4,0x14,0xa8,0x52,0xd5,0x5a,0x95,0x81,0xd8,0x76,0x00,0x00,
 0x00,0x00,0x00,0xa8,0x14,0x54,0x81,0x35,0x20,0x2d,0x41,0x46,0xc1,0x00,0x00,
 0x00,0x00,0x40,0x81,0x11,0xc1,0xac,0xaa,0x4a,0x50,0x02,0x0a,0x1c,0x01,0x00,
 0x00,0x00,0x68,0x5f,0x16,0xb4,0x5a,0x9f,0xb2,0x40,0x93,0xe5,0x6b,0x01,0x00,
 0x00,0x00,0xd5,0x6a,0x24,0x6b,0xb5,0xb1,0x56,0x1b,0x0a,0x51,0x82,0x00,0x00,
 0x00,0x00,0xd9,0xdf,0x14,0x54,0xdd,0xce,0xb5,0x1a,0xa0,0xac,0x44,0x03,0x00,
 0x00,0x40,0xee,0x6a,0x23,0xa1,0xa6,0x58,0x97,0x00,0x64,0x55,0x9b,0x02,0x00,
 0x00,0x00,0xa9,0xd6,0x25,0xf0,0x11,0x76,0x55,0x01,0x90,0xda,0x3a,0x03,0x00,
 0x00,0x60,0xb5,0x7b,0x0f,0xa4,0x20,0xdc,0xa2,0x06,0xd2,0x2a,0xd5,0x00,0x00,
 0x00,0x10,0x6d,0xad,0x55,0x72,0x24,0x75,0x0a,0x0d,0x51,0x05,0x04,0x02,0x00,
 0x00,0xe8,0xb6,0xab,0x9e,0x14,0x10,0x2c,0x54,0x19,0x2c,0xa0,0x50,0x00,0x00,
 0x00,0x48,0x5b,0x40,0x35,0x1b,0x4a,0x14,0x20,0x93,0x94,0x7f,0xd3,0x00,0x00,
 0x00,0xa8,0x2d,0x3e,0xbd,0x5c,0x54,0x39,0x4d,0x35,0xc4,0xd4,0x04,0x00,0x00,
 0x00,0xd0,0xd6,0x05,0x55,0x86,0x28,0x0c,0x84,0x76,0x52,0x7f,0xcf,0x00,0x00,
 0x00,0xa8,0x9d,0x4a,0xea,0x9a,0xa2,0x54,0x28,0x45,0xe8,0xd7,0xd9,0x00,0x00,
 0x00,0x74,0xd5,0x82,0x5c,0x42,0x24,0x0a,0x91,0x0e,0xb6,0x28,0xd7,0x00,0x00,
 0x00,0xd4,0x96,0x26,0xd5,0x55,0x43,0xd8,0x42,0x39,0x59,0x42,0x9d,0x01,0x00,
 0x00,0xa2,0x6b,0x49,0xba,0x40,0x49,0x4a,0x14,0x96,0x2e,0x11,0x95,0x01,0x00,
 0x00,0xe8,0x96,0x0b,0xd4,0xa7,0x91,0x98,0x22,0x4a,0x2b,0x68,0xbd,0x01,0x00,
 0x00,0xaa,0x66,0x01,0x6a,0x42,0x0a,0x4a,0x80,0xd6,0x52,0xa4,0xaa,0x01,0x00,
 0x00,0xe8,0xcd,0x52,0xd5,0xa3,0x90,0x98,0x26,0xa4,0x4d,0xa0,0x3c,0x01,0x00,
 0x00,0x55,0xad,0x1d,0xba,0x4a,0x0a,0x16,0x09,0xb3,0x5a,0xcc,0xaa,0x01,0x00,
 0x00,0xe8,0x76,0x55,0xd4,0x15,0x25,0x99,0xa4,0x68,0xad,0xd4,0x68,0x01,0x00,
 0x00,0x52,0xbb,0x9c,0x6a,0xa3,0x08,0x56,0x02,0xb4,0x6b,0xa2,0xbe,0x01,0x00,
 0x00,0xec,0xd6,0x29,0xb8,0x0e,0x52,0x5c,0x25,0xdd,0x32,0xc4,0x54,0x01,0x00,
 0x00,0x50,0x6b,0x5d,0xa8,0x55,0x15,0x0b,0x00,0xa5,0x2c,0x62,0xac,0x01,0x00,
 0x00,0x68,0xdd,0x24,0xd4,0x9e,0x48,0x51,0x83,0x76,0x2e,0x6a,0x7b,0x01,0x00,
 0x00,0xe8,0x75,0x05,0x69,0x35,0x12,0xaa,0x8c,0x9a,0x13,0xc6,0x96,0x01,0x00,
 0x00,0xa8,0xae,0x61,0xa0,0x5d,0x2a,0x00,0x20,0xc6,0x38,0x56,0x3d,0x01,0x00,
 0x00,0xa0,0x7d,0x75,0xab,0x6a,0x08,0x40,0x00,0x39,0x17,0xa5,0xb7,0x01,0x00,
 0x00,0xd0,0x56,0x69,0x00,0xb4,0x00,0xa0,0x01,0x8d,0x1a,0xd7,0x9a,0x01,0x00,
 0x00,0xa0,0xf5,0x5c,0xf0,0x43,0x01,0xc0,0x10,0xf2,0x0d,0x31,0x97,0x00,0x00,
 0x00,0xa0,0xae,0xaa,0x8a,0x3e,0x50,0x00,0x90,0x58,0x0a,0xca,0xad,0x01,0x00,
 0x00,0xc0,0xf5,0x54,0x41,0xd1,0x4d,0x00,0x1c,0x06,0xcb,0x70,0xdb,0x00,0x00,
 0x00,0x50,0x5d,0xb5,0x51,0x1f,0x48,0x03,0x0d,0xe5,0x83,0xd5,0x96,0x00,0x00,
 0x00,0x80,0xe6,0xdc,0x00,0xd5,0x33,0x0d,0x42,0x89,0xc2,0xa9,0x4b,0x00,0x00,
 0x00,0x00,0xbd,0xe9,0x22,0x7d,0x5d,0x00,0xa0,0xd6,0xc1,0xe9,0xd6,0x00,0x00,
 0x00,0x00,0xd5,0x39,0x24,0x42,0xa0,0x01,0xa8,0xbd,0xe0,0x54,0x6d,0x00,0x00,
 0x00,0x00,0xec,0x2a,0x4d,0x90,0xbe,0x4e,0x77,0xc9,0xb0,0xe9,0x27,0x00,0x00,
 0x00,0x00,0x5b,0x93,0x0a,0xec,0xe1,0x49,0x55,0x3e,0xd0,0x5c,0x25,0x00,0x00,
 0x00,0x00,0xd4,0x4a,0x8f,0x70,0x3d,0x4d,0x6f,0x15,0xe8,0xe4,0x32,0x00,0x00,
 0x00,0x00,0xac,0x45,0x51,0xd0,0x8b,0xb6,0xb5,0x0b,0xb0,0xba,0x15,0x00,0x00,
 0x00,0x00,0x70,0xa3,0x2f,0x84,0xe8,0x0d,0xdc,0x02,0x56,0x6c,0x13,0x00,0x00,
 0x00,0x00,0xa8,0x75,0x35,0x10,0xae,0xb6,0x7b,0x81,0xa6,0xdc,0x1a,0x00,0x00,
 0x00,0x00,0xd0,0x8e,0x6f,0x02,0xf5,0xdd,0x96,0x45,0x2e,0xea,0x09,0x00,0x00,
 0x00,0x00,0x60,0x6b,0x1d,0x41,0xa8,0x76,0x5b,0x40,0x8f,0x5e,0x04,0x00,0x00,
 0x00,0x00,0xa0,0x8d,0xb7,0x14,0x11,0x5b,0x05,0xa0,0x3b,0xb5,0x05,0x00,0x00,
 0x00,0x00,0x40,0x97,0x9a,0x50,0x81,0xa0,0x04,0x71,0x8d,0x6e,0x06,0x00,0x00,
 0x00,0x00,0x80,0x3a,0x9d,0x0e,0x20,0x00,0x90,0xa0,0x4f,0xdb,0x02,0x00,0x00,
 0x00,0x00,0x80,0x2b,0x67,0x57,0x88,0x0a,0x22,0x73,0x43,0x2f,0x01,0x00,0x00,
 0x00,0x00,0x00,0x7a,0xac,0xb6,0x22,0x22,0x94,0xd6,0xd3,0x35,0x01,0x00,0x00,
 0x00,0x00,0x00,0xd4,0xe0,0xdb,0x90,0x08,0xe1,0xf3,0x52,0x9b,0x00,0x00,0x00,
 0x00,0x00,0x00,0x79,0xb1,0x76,0x6e,0x52,0xdd,0xae,0xa9,0xd5,0x00,0x00,0x00,
 0x00,0x00,0x00,0xc8,0xd1,0xbb,0xbe,0xaf,0x77,0x6b,0xf4,0x56,0x00,0x00,0x00,
 0x00,0x00,0x00,0x60,0xc5,0x6e,0xea,0x7a,0xdd,0x4f,0xb8,0x2a,0x00,0x00,0x00,
 0x00,0x00,0x00,0x90,0x4b,0x77,0xbf,0xaf,0x7b,0x1d,0x57,0x26,0x00,0x00,0x00,
 0x00,0x00,0x00,0x80,0x16,0x3b,0xed,0x35,0xde,0x8f,0xba,0x12,0x00,0x00,0x00,
 0x00,0x00,0x00,0x80,0x1e,0xad,0xb7,0xdf,0x75,0x57,0x4f,0x0a,0x00,0x00,0x00,
 0x00,0x00,0x00,0x00,0x69,0xba,0x7a,0x35,0xef,0xa3,0xb5,0x04,0x00,0x00,0x00,
 0x00,0x00,0x00,0x00,0xb4,0xa8,0xd7,0x9d,0xdd,0x78,0x2f,0x02,0x00,0x00,0x00,
 0x00,0x00,0x00,0x00,0xa8,0x03,0x7d,0x77,0xb7,0xd4,0x5b,0x01,0x00,0x00,0x00,
 0x00,0x00,0x00,0x00,0xa4,0x8a,0xde,0x9d,0x1f,0x6e,0x9f,0x00,0x00,0x00,0x00,
 0x00,0x00,0x00,0x00,0xa0,0x15,0x70,0x3f,0x40,0xf7,0x4b,0x00,0x00,0x00,0x00,
 0x00,0x00,0x00,0x00,0x80,0x7e,0x81,0x10,0xd4,0x5a,0x33,0x00,0x00,0x00,0x00,
 0x00,0x00,0x00,0x00,0x00,0xd4,0x06,0x00,0xf5,0xf7,0x0b,0x00,0x00,0x00,0x00,
 0x00,0x00,0x00,0x00,0x00,0xa9,0xdd,0xef,0x5b,0x2d,0x04,0x00,0x00,0x00,0x00,
 0x00,0x00,0x00,0x00,0x00,0x52,0x67,0x75,0x6d,0x53,0x01,0x00,0x00,0x00,0x00,
 0x00,0x00,0x00,0x00,0x00,0x88,0xd8,0xdb,0x57,0x8a,0x00,0x00,0x00,0x00,0x00,
 0x00,0x00,0x00,0x00,0x00,0x20,0x53,0x75,0x2d,0x01,0x00,0x00,0x00,0x00,0x00,
 0x00,0x00,0x00,0x00,0x00,0x00,0xe0,0x2b,0x2b,0x01,0x00,0x00,0x00,0x00,0x00,
 0x00,0x00,0x00,0x00,0x00,0x00,0x80,0x56,0xca,0x00,0x00,0x00,0x00,0x00,0x00,
 0x00,0x00,0x00,0x00,0x00,0x00,0xa0,0x2b,0x49,0x00,0x00,0x00,0x00,0x00,0x00,
 0x00,0x00,0x00,0x00,0x00,0x00,0x00,0x96,0x65,0x00,0x00,0x00,0x00,0x00,0x00,
 0x00,0x00,0x00,0x00,0x00,0x00,0x00,0x6a,0x19,0x00,0x00,0x00,0x00,0x00,0x00,
 0x00,0x00,0x00,0x00,0x00,0x00,0x00,0x20,0x04,0x00,0x00,0x00,0x00,0x00,0x00,
 0x00,0x00,0x00,0x00,0x00,0x00,0x00,0x80,0x02,0x00,0x00,0x00,0x00,0x00,0x00,
 0x00,0x00,0x00,0x00,0x00,0x00,0x00,0x00,0x00,0x00,0x00,0x00,0x00,0x00,0x00,
 0x00,0x00,0x00,0x00,0x00,0x00,0x00,0x00,0x00,0x00,0x00,0x00,0x00,0x00,0x00,
 0x00,0x00,0xf0,0x0f,0x00,0x00,0xb5,0x20,0x05,0x00,0x00,0x00,0x00,0x00,0x00,
 0x00,0x00,0xf0,0x0d,0x00,0x00,0xfe,0xc4,0x1f,0xe0,0x2d,0x00,0x00,0x00,0x00,
 0x00,0x00,0x40,0x1f,0x00,0x00,0x7f,0xcc,0x3d,0x50,0x1f,0x00,0x00,0x00,0x00,
 0x00,0x00,0xa0,0x1d,0x00,0x80,0x7e,0x4e,0x3f,0xe0,0x1f,0x00,0x00,0x00,0x00,
 0x00,0x00,0xc0,0x3f,0x00,0x40,0x3f,0x9d,0x7f,0xe8,0x0f,0x00,0x00,0x00,0x00,
 0x00,0x00,0x80,0x3e,0x00,0x80,0x1b,0x9e,0x7e,0xe8,0x0e,0x00,0x00,0x00,0x00,
 0x00,0x00,0x40,0x77,0x00,0xe0,0x9e,0x3f,0xf6,0xd8,0x0f,0x00,0x00,0x00,0x00,
 0x00,0x00,0x80,0x7e,0x00,0xa0,0x9f,0x3e,0xff,0xe8,0x07,0x00,0x00,0x00,0x00,
 0x00,0x00,0x00,0xf7,0x00,0xe0,0x8f,0x7b,0xfc,0xfa,0x07,0x00,0x00,0x00,0x00,
 0x00,0x00,0x00,0xdd,0x00,0x70,0xe7,0x7f,0xf6,0xad,0x01,0x00,0x00,0x00,0x00,
 0x00,0x00,0x00,0xf6,0x00,0xd0,0xc7,0xfb,0xda,0xfb,0x03,0x00,0x00,0x00,0x00,
 0x00,0x00,0x00,0xfe,0x01,0xf4,0x73,0xff,0xfc,0xfd,0x01,0x00,0x00,0x00,0x00,
 0x00,0x00,0x00,0xea,0x01,0xf8,0xeb,0xdf,0xf1,0xdb,0x01,0x00,0x00,0x00,0x00,
 0x00,0x00,0x00,0xfc,0x03,0xee,0xb1,0xff,0xd9,0xff,0x00,0x00,0x00,0x00,0x00,
 0x00,0x00,0x00,0xb4,0x03,0xfa,0xf5,0xfb,0xf3,0xfd,0x00,0x00,0x00,0x00,0x00,
 0x00,0x00,0x00,0xf8,0x07,0xee,0xfc,0xdf,0xd3,0x77,0x00,0x00,0x00,0x00,0x00,
 0x00,0x00,0x00,0x68,0x07,0xfe,0xa8,0xf7,0xe7,0x7f,0x00,0x00,0x00,0x00,0x00,
 0x00,0x00,0x00,0xb0,0x87,0x7b,0xfe,0xf9,0x47,0x3b,0x00,0x00,0x00,0x00,0x00,
 0x00,0x00,0x00,0xe0,0x8f,0x3e,0xfa,0xd1,0xce,0x7f,0x00,0x00,0x00,0x00,0x00,
 0x00,0x00,0x00,0xd0,0x9e,0x3f,0xff,0xf0,0xef,0x1f,0x00,0x00,0x00,0x00,0x00,
 0x00,0x00,0x00,0x40,0xdf,0x9d,0xee,0xa0,0x6f,0x7b,0x00,0x00,0x00,0x00,0x00,
 0x00,0x00,0x00,0xe0,0x7d,0x9f,0x7b,0xe0,0xfe,0x7f,0x00,0x00,0x00,0x00,0x00,
 0x00,0x00,0x00,0x20,0xff,0x4f,0xff,0xa0,0xdf,0xff,0x00,0x00,0x00,0x00,0x00,
 0x00,0x00,0x00,0xc0,0xed,0xcf,0xfe,0xee,0x7f,0x5b,0x01,0x00,0x00,0x00,0x00,
 0x00,0x00,0x00,0x00,0x7b,0xc7,0xef,0xbf,0xf6,0xff,0x00,0x00,0x00,0x00,0x00,
 0x00,0x00,0x00,0x80,0xde,0xb3,0xfb,0xff,0xdf,0xff,0x01,0x00,0x00,0x00,0x00,
 0x00,0x00,0x00,0x00,0xf7,0x63,0xff,0xff,0xff,0xf5,0x03,0x00,0x00,0x00,0x00,
 0x00,0x00,0x00,0x00,0xfd,0xf9,0x5f,0xdb,0xfd,0xfd,0x01,0x00,0x00,0x00,0x00,
 0x00,0x00,0x00,0x00,0xde,0xa9,0xfb,0xff,0xdf,0xed,0x03,0x00,0x00,0x00,0x00,
 0x00,0x00,0x00,0x00,0xf4,0xf8,0xff,0x7f,0x7f,0xfd,0x07,0x00,0x00,0x00,0x00,
 0x00,0x00,0x00,0x00,0xfc,0xd8,0x6e,0xdb,0x77,0x69,0x07,0x00,0x00,0x00,0x00,
 0x00,0x00,0x00,0x00,0x74,0xfe,0x93,0xc4,0x7e,0xf4,0x0f,0x00,0x00,0x00,0x00,
 0x00,0x00,0x00,0x00,0x78,0xaa,0x07,0xa0,0xbf,0xd8,0x0f,0x00,0x00,0x00,0x00,
 0x00,0x00,0x00,0x00,0x30,0xfd,0x01,0xd0,0x3f,0xe0,0x1f,0x00,0x00,0x00,0x00,
 0x00,0x00,0x00,0x00,0x30,0xef,0x02,0xe0,0x2d,0xd0,0x1d,0x00,0x00,0x00,0x00,
 0x00,0x00,0x00,0x00,0x80,0xfd,0x00,0xf8,0x1f,0xe0,0x2f,0x00,0x00,0x00,0x00,
 0x00,0x00,0x00,0x00,0x00,0xea,0x00,0x68,0x17,0x60,0x3f,0x00,0x00,0x00,0x00,
 0x00,0x00,0x00,0x00,0x00,0x00,0x00,0x00,0x00,0x00,0x00,0x00,0x00,0x00,0x00,
 0x00,0x00,0x00,0x00,0x00,0x00,0x00,0x00,0x00,0x00,0x00,0x00,0x00,0x00,0x00,
 0x00,0x00,0x00,0x00,0x00,0x00,0x00,0x00,0x00,0x00,0x00,0x00,0x00,0x00,0x00,
 0x00,0x00,0x00,0x00,0x00,0x00,0x00,0x00,0x00,0x00,0x00,0x00,0x00,0x00,0x00,
 0x00,0x00,0x00,0x00,0x00,0x00,0x00,0x00,0x00,0x00,0x00,0x00,0x00,0x00,0x00,
 0x00,0x00,0x00,0x00,0x00,0x00,0x00,0x00,0x00,0x00,0x00,0x00,0x00,0x00,0x00,
 0x00,0x00,0x00,0x00,0x00,0x00,0x00,0x00,0x00,0x00,0x00,0x00,0x00,0x00,0x00,
 0x00,0x00,0x00,0x00,0x00,0x00,0x00,0x00,0x00,0x00,0x00,0x00,0x00,0x00,0x00};
